<?xml version="1.0" encoding="utf-8"?>
<!-- Generator: Adobe Illustrator 27.5.0, SVG Export Plug-In . SVG Version: 6.00 Build 0)  -->
<svg version="1.1" xmlns="http://www.w3.org/2000/svg" xmlns:xlink="http://www.w3.org/1999/xlink" x="0px" y="0px"
	 viewBox="0 0 500 500" style="enable-background:new 0 0 500 500;" xml:space="preserve">
<g id="Background_Simple">
	<g>
		<path style="fill:#92E3A9;" d="M490.605,243.046c-5.357,45.368-26.072,98.116-67.443,122.349
			c-62.509,36.62-57.276,92.945-179.287,117.431c-19.023,3.82-37.076,5.427-54.098,5.109c-9.151-0.17-18.009-0.908-26.552-2.165
			C85.68,474.443,33.495,420.542,14.35,355.476c-25.195-85.572,25.113-141.595,58.458-175.348
			c33.345-33.754,57.767-138.925,177.522-163.939c18.26-3.806,36.932-5.748,55.6-5.282c42.608,1.045,89.083,15.037,121.241,44.239
			c2.415,2.194,4.762,4.469,7.052,6.813C478.92,107.836,497.912,181.195,490.605,243.046z"/>
		<path style="opacity:0.7;fill:#FFFFFF;" d="M490.605,243.046c-5.357,45.368-26.072,98.116-67.443,122.349
			c-62.509,36.62-57.276,92.945-179.287,117.431c-19.023,3.82-37.076,5.427-54.098,5.109c-9.151-0.17-18.009-0.908-26.552-2.165
			C85.68,474.443,33.495,420.542,14.35,355.476c-25.195-85.572,25.113-141.595,58.458-175.348
			c33.345-33.754,57.767-138.925,177.522-163.939c18.26-3.806,36.932-5.748,55.6-5.282c42.608,1.045,89.083,15.037,121.241,44.239
			c2.415,2.194,4.762,4.469,7.052,6.813C478.92,107.836,497.912,181.195,490.605,243.046z"/>
	</g>
</g>
<g id="Clouds">
	<path style="fill:none;stroke:#263238;stroke-miterlimit:10;" d="M218.327,61.209c0,0-19.482-22.729-47.892-22.729
		c-28.411,0-33.281,20.293-38.963,24.352c-5.682,4.059-15.423-3.247-25.164,0c-9.741,3.247-12.176,10.553-16.235,12.176
		c-4.059,1.624-9.741-5.682-19.482-3.247c-9.741,2.435-22.729,10.553-22.729,10.553h216.734c0,0-1.623-14.611-16.235-16.235
		C233.75,64.456,223.197,74.197,218.327,61.209z"/>
	<path style="fill:none;stroke:#263238;stroke-miterlimit:10;" d="M429.653,200.213c0,0-10.628-12.4-26.128-12.4
		c-15.5,0-18.157,11.071-21.257,13.286c-3.1,2.214-8.414-1.771-13.729,0c-5.314,1.771-6.643,5.757-8.857,6.643
		s-5.314-3.1-10.629-1.771c-5.314,1.329-12.4,5.757-12.4,5.757h118.242c0,0-0.886-7.971-8.857-8.857
		C438.067,201.985,432.31,207.299,429.653,200.213z"/>
	<path style="fill:none;stroke:#263238;stroke-miterlimit:10;" d="M139.932,264.983c0,0-10.989-12.82-27.014-12.82
		s-18.772,11.447-21.978,13.736c-3.205,2.289-8.699-1.831-14.194,0c-5.494,1.831-6.868,5.952-9.157,6.868
		c-2.289,0.916-5.494-3.205-10.989-1.832c-5.494,1.374-12.82,5.952-12.82,5.952h122.25c0,0-0.916-8.242-9.157-9.157
		C148.632,266.814,142.68,272.308,139.932,264.983z"/>
</g>
<g id="Building">
	<g>
		<rect x="67.495" y="351.055" style="fill:#92E3A9;stroke:#263238;stroke-miterlimit:10;" width="355.302" height="111.479"/>
		<rect x="67.495" y="351.055" style="fill:#263238;stroke:#263238;stroke-miterlimit:10;" width="355.302" height="4.111"/>
		<rect x="67.495" y="418.562" style="fill:#263238;stroke:#263238;stroke-miterlimit:10;" width="355.302" height="43.973"/>
		<rect x="64.273" y="341.262" style="fill:#263238;stroke:#263238;stroke-miterlimit:10;" width="361.746" height="10.433"/>
		<rect x="148.888" y="74.401" style="fill:#92E3A9;stroke:#263238;stroke-miterlimit:10;" width="192.516" height="388.133"/>
		<rect x="195.971" y="374.567" style="fill:#8A8A8A;stroke:#263238;stroke-miterlimit:10;" width="98.351" height="87.967"/>
		<g>
			<rect x="148.888" y="209.703" style="fill:#263238;stroke:#263238;stroke-miterlimit:10;" width="192.516" height="9.485"/>
			<rect x="148.888" y="255.152" style="fill:#263238;stroke:#263238;stroke-miterlimit:10;" width="192.516" height="7.904"/>
			<rect x="148.888" y="298.231" style="fill:#263238;stroke:#263238;stroke-miterlimit:10;" width="192.516" height="10.276"/>
			<rect x="148.888" y="343.285" style="fill:#263238;stroke:#263238;stroke-miterlimit:10;" width="192.516" height="7.2"/>
			<rect x="148.888" y="162.071" style="fill:#263238;stroke:#263238;stroke-miterlimit:10;" width="192.516" height="8.506"/>
			<rect x="148.888" y="117.904" style="fill:#263238;stroke:#263238;stroke-miterlimit:10;" width="192.516" height="8.506"/>
			<rect x="148.888" y="73.738" style="fill:#263238;stroke:#263238;stroke-miterlimit:10;" width="192.516" height="8.506"/>
		</g>
		<g>
			<rect x="210.763" y="383.592" style="fill:#B8B8B8;stroke:#263238;stroke-miterlimit:10;" width="68.766" height="63.654"/>
			<rect x="214.532" y="387.316" style="fill:#263238;stroke:#263238;stroke-miterlimit:10;" width="27.785" height="59.93"/>
			<rect x="247.105" y="387.316" style="fill:#263238;stroke:#263238;stroke-miterlimit:10;" width="28.655" height="59.93"/>
		</g>
		<rect x="148.728" y="444.878" style="fill:#263238;stroke:#263238;stroke-miterlimit:10;" width="192.836" height="17.748"/>
		<g>
			<rect x="210.318" y="444.878" style="fill:#FFFFFF;stroke:#263238;stroke-miterlimit:10;" width="70.938" height="17.748"/>
			<rect x="210.318" y="450.826" style="fill:#FFFFFF;stroke:#263238;stroke-miterlimit:10;" width="70.938" height="5.852"/>
		</g>
		<g>
			<rect x="145.81" y="340.352" style="fill:#263238;stroke:#263238;stroke-miterlimit:10;" width="198.459" height="7.509"/>
			<rect x="145.81" y="295.833" style="fill:#263238;stroke:#263238;stroke-miterlimit:10;" width="198.459" height="7.509"/>
			<rect x="145.81" y="251.314" style="fill:#263238;stroke:#263238;stroke-miterlimit:10;" width="198.459" height="7.509"/>
			<rect x="145.81" y="206.794" style="fill:#263238;stroke:#263238;stroke-miterlimit:10;" width="198.459" height="7.509"/>
			<rect x="145.81" y="158.316" style="fill:#263238;stroke:#263238;stroke-miterlimit:10;" width="198.459" height="7.509"/>
		</g>
		<g>
			<rect x="315.24" y="353.779" style="fill:#FFFFFF;stroke:#263238;stroke-miterlimit:10;" width="19.309" height="30.037"/>
			<rect x="316.567" y="355.842" style="fill:#FFFFFF;stroke:#263238;stroke-miterlimit:10;" width="16.657" height="12.688"/>
			<rect x="316.567" y="371.309" style="fill:#FFFFFF;stroke:#263238;stroke-miterlimit:10;" width="16.657" height="10.443"/>
		</g>
		<g>
			<rect x="315.24" y="400.462" style="fill:#FFFFFF;stroke:#263238;stroke-miterlimit:10;" width="19.309" height="30.037"/>
			<rect x="316.567" y="402.525" style="fill:#FFFFFF;stroke:#263238;stroke-miterlimit:10;" width="16.657" height="12.688"/>
			<rect x="316.567" y="417.992" style="fill:#FFFFFF;stroke:#263238;stroke-miterlimit:10;" width="16.657" height="10.443"/>
		</g>
		<g>
			<rect x="351.215" y="400.462" style="fill:#FFFFFF;stroke:#263238;stroke-miterlimit:10;" width="19.309" height="30.037"/>
			<rect x="352.541" y="402.525" style="fill:#FFFFFF;stroke:#263238;stroke-miterlimit:10;" width="16.657" height="12.688"/>
			<rect x="352.541" y="417.992" style="fill:#FFFFFF;stroke:#263238;stroke-miterlimit:10;" width="16.657" height="10.443"/>
		</g>
		<g>
			<rect x="391.862" y="400.462" style="fill:#FFFFFF;stroke:#263238;stroke-miterlimit:10;" width="19.309" height="30.037"/>
			<rect x="393.188" y="402.525" style="fill:#FFFFFF;stroke:#263238;stroke-miterlimit:10;" width="16.657" height="12.688"/>
			<rect x="393.188" y="417.992" style="fill:#FFFFFF;stroke:#263238;stroke-miterlimit:10;" width="16.657" height="10.443"/>
		</g>
		<g>
			<rect x="78.9" y="400.462" style="fill:#FFFFFF;stroke:#263238;stroke-miterlimit:10;" width="19.309" height="30.037"/>
			<rect x="80.226" y="402.525" style="fill:#FFFFFF;stroke:#263238;stroke-miterlimit:10;" width="16.657" height="12.688"/>
			<rect x="80.226" y="417.992" style="fill:#FFFFFF;stroke:#263238;stroke-miterlimit:10;" width="16.657" height="10.443"/>
		</g>
		<g>
			<rect x="119.547" y="400.462" style="fill:#FFFFFF;stroke:#263238;stroke-miterlimit:10;" width="19.309" height="30.037"/>
			<rect x="120.873" y="402.525" style="fill:#FFFFFF;stroke:#263238;stroke-miterlimit:10;" width="16.657" height="12.688"/>
			<rect x="120.873" y="417.992" style="fill:#FFFFFF;stroke:#263238;stroke-miterlimit:10;" width="16.657" height="10.443"/>
		</g>
		<g>
			<rect x="159.632" y="353.779" style="fill:#FFFFFF;stroke:#263238;stroke-miterlimit:10;" width="19.309" height="30.037"/>
			<rect x="160.958" y="355.842" style="fill:#FFFFFF;stroke:#263238;stroke-miterlimit:10;" width="16.657" height="12.688"/>
			<rect x="160.958" y="371.309" style="fill:#FFFFFF;stroke:#263238;stroke-miterlimit:10;" width="16.657" height="10.443"/>
		</g>
		<g>
			<rect x="159.632" y="400.462" style="fill:#FFFFFF;stroke:#263238;stroke-miterlimit:10;" width="19.309" height="30.037"/>
			<rect x="160.958" y="402.525" style="fill:#FFFFFF;stroke:#263238;stroke-miterlimit:10;" width="16.657" height="12.688"/>
			<rect x="160.958" y="417.992" style="fill:#FFFFFF;stroke:#263238;stroke-miterlimit:10;" width="16.657" height="10.443"/>
		</g>
		<g>
			<rect x="351.215" y="353.99" style="fill:#FFFFFF;stroke:#263238;stroke-miterlimit:10;" width="19.309" height="30.037"/>
			<rect x="352.541" y="356.053" style="fill:#FFFFFF;stroke:#263238;stroke-miterlimit:10;" width="16.657" height="12.688"/>
			<rect x="352.541" y="371.52" style="fill:#FFFFFF;stroke:#263238;stroke-miterlimit:10;" width="16.657" height="10.443"/>
		</g>
		<g>
			<rect x="391.862" y="353.99" style="fill:#FFFFFF;stroke:#263238;stroke-miterlimit:10;" width="19.309" height="30.037"/>
			<rect x="393.188" y="356.053" style="fill:#FFFFFF;stroke:#263238;stroke-miterlimit:10;" width="16.657" height="12.688"/>
			<rect x="393.188" y="371.52" style="fill:#FFFFFF;stroke:#263238;stroke-miterlimit:10;" width="16.657" height="10.443"/>
		</g>
		<g>
			<rect x="78.9" y="353.99" style="fill:#FFFFFF;stroke:#263238;stroke-miterlimit:10;" width="19.309" height="30.037"/>
			<rect x="80.226" y="356.053" style="fill:#FFFFFF;stroke:#263238;stroke-miterlimit:10;" width="16.657" height="12.688"/>
			<rect x="80.226" y="371.52" style="fill:#FFFFFF;stroke:#263238;stroke-miterlimit:10;" width="16.657" height="10.443"/>
		</g>
		<g>
			<rect x="119.547" y="353.99" style="fill:#FFFFFF;stroke:#263238;stroke-miterlimit:10;" width="19.309" height="30.037"/>
			<rect x="120.873" y="356.053" style="fill:#FFFFFF;stroke:#263238;stroke-miterlimit:10;" width="16.657" height="12.688"/>
			<rect x="120.873" y="371.52" style="fill:#FFFFFF;stroke:#263238;stroke-miterlimit:10;" width="16.657" height="10.443"/>
		</g>
		<g>
			<rect x="159.632" y="353.99" style="fill:#FFFFFF;stroke:#263238;stroke-miterlimit:10;" width="19.309" height="30.037"/>
			<rect x="160.958" y="356.053" style="fill:#FFFFFF;stroke:#263238;stroke-miterlimit:10;" width="16.657" height="12.688"/>
			<rect x="160.958" y="371.52" style="fill:#FFFFFF;stroke:#263238;stroke-miterlimit:10;" width="16.657" height="10.443"/>
		</g>
		<g>
			<g>
				<rect x="159.632" y="307.097" style="fill:#FFFFFF;stroke:#263238;stroke-miterlimit:10;" width="19.309" height="30.037"/>
				<rect x="160.958" y="309.16" style="fill:#FFFFFF;stroke:#263238;stroke-miterlimit:10;" width="16.657" height="12.688"/>
				<rect x="160.958" y="324.627" style="fill:#FFFFFF;stroke:#263238;stroke-miterlimit:10;" width="16.657" height="10.443"/>
			</g>
			<g>
				<rect x="159.632" y="262.21" style="fill:#FFFFFF;stroke:#263238;stroke-miterlimit:10;" width="19.309" height="30.037"/>
				<rect x="160.958" y="264.273" style="fill:#FFFFFF;stroke:#263238;stroke-miterlimit:10;" width="16.657" height="12.688"/>
				<rect x="160.958" y="279.74" style="fill:#FFFFFF;stroke:#263238;stroke-miterlimit:10;" width="16.657" height="10.443"/>
			</g>
			<g>
				<rect x="159.632" y="217.322" style="fill:#FFFFFF;stroke:#263238;stroke-miterlimit:10;" width="19.309" height="30.037"/>
				<rect x="160.958" y="219.386" style="fill:#FFFFFF;stroke:#263238;stroke-miterlimit:10;" width="16.657" height="12.688"/>
				<rect x="160.958" y="234.853" style="fill:#FFFFFF;stroke:#263238;stroke-miterlimit:10;" width="16.657" height="10.443"/>
			</g>
			<g>
				<rect x="159.632" y="172.435" style="fill:#FFFFFF;stroke:#263238;stroke-miterlimit:10;" width="19.309" height="30.037"/>
				<rect x="160.958" y="174.499" style="fill:#FFFFFF;stroke:#263238;stroke-miterlimit:10;" width="16.657" height="12.688"/>
				<rect x="160.958" y="189.966" style="fill:#FFFFFF;stroke:#263238;stroke-miterlimit:10;" width="16.657" height="10.443"/>
			</g>
			<g>
				<rect x="315.24" y="307.097" style="fill:#FFFFFF;stroke:#263238;stroke-miterlimit:10;" width="19.309" height="30.037"/>
				<rect x="316.567" y="309.16" style="fill:#FFFFFF;stroke:#263238;stroke-miterlimit:10;" width="16.657" height="12.688"/>
				<rect x="316.567" y="324.627" style="fill:#FFFFFF;stroke:#263238;stroke-miterlimit:10;" width="16.657" height="10.443"/>
			</g>
			<g>
				<rect x="315.24" y="262.21" style="fill:#FFFFFF;stroke:#263238;stroke-miterlimit:10;" width="19.309" height="30.037"/>
				<rect x="316.567" y="264.273" style="fill:#FFFFFF;stroke:#263238;stroke-miterlimit:10;" width="16.657" height="12.688"/>
				<rect x="316.567" y="279.74" style="fill:#FFFFFF;stroke:#263238;stroke-miterlimit:10;" width="16.657" height="10.443"/>
			</g>
			<g>
				<rect x="315.24" y="217.322" style="fill:#FFFFFF;stroke:#263238;stroke-miterlimit:10;" width="19.309" height="30.037"/>
				<rect x="316.567" y="219.386" style="fill:#FFFFFF;stroke:#263238;stroke-miterlimit:10;" width="16.657" height="12.688"/>
				<rect x="316.567" y="234.853" style="fill:#FFFFFF;stroke:#263238;stroke-miterlimit:10;" width="16.657" height="10.443"/>
			</g>
			<g>
				<rect x="315.24" y="172.435" style="fill:#FFFFFF;stroke:#263238;stroke-miterlimit:10;" width="19.309" height="30.037"/>
				<rect x="316.567" y="174.499" style="fill:#FFFFFF;stroke:#263238;stroke-miterlimit:10;" width="16.657" height="12.688"/>
				<rect x="316.567" y="189.966" style="fill:#FFFFFF;stroke:#263238;stroke-miterlimit:10;" width="16.657" height="10.443"/>
			</g>
			<g>
				<rect x="159.632" y="128.269" style="fill:#FFFFFF;stroke:#263238;stroke-miterlimit:10;" width="19.309" height="30.037"/>
				<rect x="160.958" y="130.332" style="fill:#FFFFFF;stroke:#263238;stroke-miterlimit:10;" width="16.657" height="12.688"/>
				<rect x="160.958" y="145.799" style="fill:#FFFFFF;stroke:#263238;stroke-miterlimit:10;" width="16.657" height="10.443"/>
			</g>
			<g>
				<rect x="315.24" y="128.269" style="fill:#FFFFFF;stroke:#263238;stroke-miterlimit:10;" width="19.309" height="30.037"/>
				<rect x="316.567" y="130.332" style="fill:#FFFFFF;stroke:#263238;stroke-miterlimit:10;" width="16.657" height="12.688"/>
				<rect x="316.567" y="145.799" style="fill:#FFFFFF;stroke:#263238;stroke-miterlimit:10;" width="16.657" height="10.443"/>
			</g>
			<g>
				<rect x="159.632" y="84.102" style="fill:#FFFFFF;stroke:#263238;stroke-miterlimit:10;" width="19.309" height="30.037"/>
				<rect x="160.958" y="86.165" style="fill:#FFFFFF;stroke:#263238;stroke-miterlimit:10;" width="16.657" height="12.688"/>
				<rect x="160.958" y="101.632" style="fill:#FFFFFF;stroke:#263238;stroke-miterlimit:10;" width="16.657" height="10.443"/>
			</g>
			<g>
				<rect x="198.534" y="84.102" style="fill:#FFFFFF;stroke:#263238;stroke-miterlimit:10;" width="19.309" height="30.037"/>
				<rect x="199.86" y="86.165" style="fill:#FFFFFF;stroke:#263238;stroke-miterlimit:10;" width="16.657" height="12.688"/>
				<rect x="199.86" y="101.632" style="fill:#FFFFFF;stroke:#263238;stroke-miterlimit:10;" width="16.657" height="10.443"/>
			</g>
			<g>
				<rect x="237.436" y="84.102" style="fill:#FFFFFF;stroke:#263238;stroke-miterlimit:10;" width="19.309" height="30.037"/>
				<rect x="238.762" y="86.165" style="fill:#FFFFFF;stroke:#263238;stroke-miterlimit:10;" width="16.657" height="12.688"/>
				<rect x="238.762" y="101.632" style="fill:#FFFFFF;stroke:#263238;stroke-miterlimit:10;" width="16.657" height="10.443"/>
			</g>
			<g>
				<rect x="276.338" y="84.102" style="fill:#FFFFFF;stroke:#263238;stroke-miterlimit:10;" width="19.309" height="30.037"/>
				<rect x="277.665" y="86.165" style="fill:#FFFFFF;stroke:#263238;stroke-miterlimit:10;" width="16.657" height="12.688"/>
				<rect x="277.665" y="101.632" style="fill:#FFFFFF;stroke:#263238;stroke-miterlimit:10;" width="16.657" height="10.443"/>
			</g>
			<g>
				<rect x="315.24" y="84.102" style="fill:#FFFFFF;stroke:#263238;stroke-miterlimit:10;" width="19.309" height="30.037"/>
				<rect x="316.567" y="86.165" style="fill:#FFFFFF;stroke:#263238;stroke-miterlimit:10;" width="16.657" height="12.688"/>
				<rect x="316.567" y="101.632" style="fill:#FFFFFF;stroke:#263238;stroke-miterlimit:10;" width="16.657" height="10.443"/>
			</g>
		</g>
		<g>
			<rect x="189.197" y="125.822" style="fill:#8A8A8A;stroke:#263238;stroke-miterlimit:10;" width="111.897" height="222.827"/>
			<g style="opacity:0.23;">
				<polygon style="fill:#FFFFFF;" points="300.05,211.827 300.05,172.574 190.242,282.383 190.242,321.636 				"/>
				<polygon style="fill:#FFFFFF;" points="190.242,156.225 190.242,195.478 258.054,127.666 218.801,127.666 				"/>
			</g>
			<g style="opacity:0.35;">
				<g>
					<line style="fill:none;stroke:#000000;stroke-miterlimit:10;" x1="196.771" y1="128.047" x2="196.771" y2="337.443"/>
					<line style="fill:none;stroke:#000000;stroke-miterlimit:10;" x1="207.438" y1="128.047" x2="207.438" y2="347.124"/>
					<line style="fill:none;stroke:#000000;stroke-miterlimit:10;" x1="218.105" y1="128.047" x2="218.105" y2="347.124"/>
					<line style="fill:none;stroke:#000000;stroke-miterlimit:10;" x1="228.772" y1="128.047" x2="228.772" y2="347.124"/>
					<line style="fill:none;stroke:#000000;stroke-miterlimit:10;" x1="239.439" y1="128.047" x2="239.439" y2="347.124"/>
					<line style="fill:none;stroke:#000000;stroke-miterlimit:10;" x1="250.106" y1="128.047" x2="250.106" y2="347.124"/>
					<line style="fill:none;stroke:#000000;stroke-miterlimit:10;" x1="260.773" y1="128.047" x2="260.773" y2="347.124"/>
					<line style="fill:none;stroke:#000000;stroke-miterlimit:10;" x1="271.439" y1="128.047" x2="271.439" y2="347.124"/>
					<line style="fill:none;stroke:#000000;stroke-miterlimit:10;" x1="282.106" y1="128.047" x2="282.106" y2="347.124"/>
					<line style="fill:none;stroke:#000000;stroke-miterlimit:10;" x1="292.773" y1="128.047" x2="292.773" y2="337.443"/>
				</g>
				<line style="fill:none;stroke:#000000;stroke-miterlimit:10;" x1="192.132" y1="132.405" x2="298.84" y2="132.405"/>
				<line style="fill:none;stroke:#000000;stroke-miterlimit:10;" x1="192.132" y1="143.37" x2="298.84" y2="143.37"/>
				<line style="fill:none;stroke:#000000;stroke-miterlimit:10;" x1="192.132" y1="154.334" x2="298.84" y2="154.334"/>
				<line style="fill:none;stroke:#000000;stroke-miterlimit:10;" x1="192.132" y1="165.298" x2="298.84" y2="165.298"/>
				<line style="fill:none;stroke:#000000;stroke-miterlimit:10;" x1="192.132" y1="176.262" x2="298.84" y2="176.262"/>
				<line style="fill:none;stroke:#000000;stroke-miterlimit:10;" x1="192.132" y1="187.227" x2="298.84" y2="187.227"/>
				<line style="fill:none;stroke:#000000;stroke-miterlimit:10;" x1="192.132" y1="198.191" x2="298.84" y2="198.191"/>
				<line style="fill:none;stroke:#000000;stroke-miterlimit:10;" x1="192.132" y1="209.155" x2="298.84" y2="209.155"/>
				<line style="fill:none;stroke:#000000;stroke-miterlimit:10;" x1="192.132" y1="220.119" x2="298.84" y2="220.119"/>
				<line style="fill:none;stroke:#000000;stroke-miterlimit:10;" x1="192.132" y1="231.084" x2="298.84" y2="231.084"/>
				<line style="fill:none;stroke:#000000;stroke-miterlimit:10;" x1="192.132" y1="242.048" x2="298.84" y2="242.048"/>
				<line style="fill:none;stroke:#000000;stroke-miterlimit:10;" x1="192.132" y1="253.012" x2="298.84" y2="253.012"/>
				<line style="fill:none;stroke:#000000;stroke-miterlimit:10;" x1="192.132" y1="263.976" x2="298.84" y2="263.976"/>
				<line style="fill:none;stroke:#000000;stroke-miterlimit:10;" x1="192.132" y1="274.941" x2="298.84" y2="274.941"/>
				<line style="fill:none;stroke:#000000;stroke-miterlimit:10;" x1="192.132" y1="285.905" x2="298.84" y2="285.905"/>
				<line style="fill:none;stroke:#000000;stroke-miterlimit:10;" x1="192.132" y1="296.869" x2="298.84" y2="296.869"/>
				<line style="fill:none;stroke:#000000;stroke-miterlimit:10;" x1="192.132" y1="307.833" x2="298.84" y2="307.833"/>
				<line style="fill:none;stroke:#000000;stroke-miterlimit:10;" x1="192.132" y1="318.798" x2="298.84" y2="318.798"/>
				<line style="fill:none;stroke:#000000;stroke-miterlimit:10;" x1="192.132" y1="329.762" x2="298.84" y2="329.762"/>
			</g>
		</g>
		<rect x="145.81" y="69.983" style="fill:#263238;stroke:#263238;stroke-miterlimit:10;" width="198.459" height="7.509"/>
		<rect x="184.072" y="62.854" style="fill:#263238;stroke:#263238;stroke-miterlimit:10;" width="123.423" height="51.965"/>
		<rect x="145.81" y="114.15" style="fill:#263238;stroke:#263238;stroke-miterlimit:10;" width="198.459" height="7.509"/>
		<g>
			<g>
				<rect x="190.127" y="382.746" style="fill:#263238;stroke:#263238;stroke-miterlimit:10;" width="16.147" height="73.734"/>
				<rect x="186.083" y="372.107" style="fill:#92E3A9;stroke:#263238;stroke-miterlimit:10;" width="24.235" height="11.509"/>
				<rect x="186.083" y="444.878" style="fill:#92E3A9;stroke:#263238;stroke-miterlimit:10;" width="24.235" height="17.763"/>
			</g>
			<g>
				<rect x="285.24" y="382.746" style="fill:#263238;stroke:#263238;stroke-miterlimit:10;" width="16.147" height="73.734"/>
				<rect x="281.196" y="372.107" style="fill:#92E3A9;stroke:#263238;stroke-miterlimit:10;" width="24.235" height="11.509"/>
				<rect x="281.196" y="444.878" style="fill:#92E3A9;stroke:#263238;stroke-miterlimit:10;" width="24.235" height="17.763"/>
			</g>
			<polygon style="fill:#263238;stroke:#263238;stroke-miterlimit:10;" points="285.303,339.726 284.244,348.784 207.323,348.784 
				206.265,339.726 184.072,339.726 184.072,372.636 307.495,372.636 307.495,339.726 			"/>
			<rect x="200.932" y="355.398" style="fill:#92E3A9;stroke:#263238;stroke-miterlimit:10;" width="89.564" height="8.588"/>
		</g>
	</g>
</g>
<g id="Text">
	<g>
		<path style="fill:#92E3A9;stroke:#FFFFFF;stroke-width:0.75;stroke-miterlimit:10;" d="M200.564,103.981V72.97h6.853v12.558h4.786
			V72.97h6.891v31.011h-6.891V90.428h-4.786v13.553H200.564z"/>
		<path style="fill:#92E3A9;stroke:#FFFFFF;stroke-width:0.75;stroke-miterlimit:10;" d="M232.685,104.44
			c-2.323,0-4.161-0.408-5.513-1.226c-1.353-0.816-2.323-1.991-2.91-3.521c-0.588-1.532-0.881-3.357-0.881-5.475V82.694
			c0-2.144,0.293-3.968,0.881-5.474c0.587-1.506,1.556-2.661,2.91-3.465c1.352-0.805,3.19-1.206,5.513-1.206
			c2.348,0,4.205,0.402,5.571,1.206c1.365,0.804,2.341,1.959,2.928,3.465c0.587,1.506,0.881,3.33,0.881,5.474v11.524
			c0,2.118-0.293,3.943-0.881,5.475c-0.587,1.531-1.563,2.705-2.928,3.521C236.89,104.032,235.033,104.44,232.685,104.44z
			 M232.685,99.578c0.714,0,1.238-0.179,1.57-0.537c0.331-0.357,0.549-0.816,0.651-1.378c0.102-0.561,0.153-1.135,0.153-1.723V81.01
			c0-0.612-0.051-1.193-0.153-1.741c-0.102-0.549-0.319-1.001-0.651-1.36c-0.332-0.357-0.855-0.536-1.57-0.536
			c-0.664,0-1.162,0.179-1.493,0.536c-0.332,0.358-0.549,0.811-0.651,1.36c-0.102,0.549-0.153,1.129-0.153,1.741v14.932
			c0,0.588,0.044,1.162,0.134,1.723c0.089,0.561,0.293,1.02,0.612,1.378C231.453,99.4,231.97,99.578,232.685,99.578z"/>
		<path style="fill:#92E3A9;stroke:#FFFFFF;stroke-width:0.75;stroke-miterlimit:10;" d="M248.726,103.981V78.062h-4.671V72.97
			h16.194v5.092h-4.632v25.919H248.726z"/>
		<path style="fill:#92E3A9;stroke:#FFFFFF;stroke-width:0.75;stroke-miterlimit:10;" d="M262.967,103.981V72.97h13.936v4.671
			h-7.083v7.695h5.398v4.747h-5.398v9.264h7.159v4.633H262.967z"/>
		<path style="fill:#92E3A9;stroke:#FFFFFF;stroke-width:0.75;stroke-miterlimit:10;" d="M280.08,103.981V72.97h6.853v26.378h7.121
			v4.633H280.08z"/>
	</g>
</g>
<g id="Trees_1_">
	<g>
		<path style="fill:#92E3A9;" d="M441.325,366.465c-24.444,0-44.26,19.681-44.26,43.959c0,11.256,4.262,21.522,11.267,29.299
			c3.205-0.464,9.047-0.784,15.503,1.412c8.556,2.91,13.888,7.68,15.055,8.793h3.966c1.168-1.114,6.499-5.883,15.055-8.793
			c7.03-2.391,13.333-1.801,16.294-1.287c7.073-7.791,11.379-18.108,11.379-29.424C485.585,386.146,465.769,366.465,441.325,366.465
			z"/>
		<path style="opacity:0.5;fill:#FFFFFF;" d="M441.325,366.465c-24.444,0-44.26,19.681-44.26,43.959
			c0,11.256,4.262,21.522,11.267,29.299c3.205-0.464,9.047-0.784,15.503,1.412c8.556,2.91,13.888,7.68,15.055,8.793h3.966
			c1.168-1.114,6.499-5.883,15.055-8.793c7.03-2.391,13.333-1.801,16.294-1.287c7.073-7.791,11.379-18.108,11.379-29.424
			C485.585,386.146,465.769,366.465,441.325,366.465z"/>
		<path style="fill:#263238;" d="M427.875,433.356c2.293,1.815,4.435,3.797,6.497,5.843c1.802,1.789,3.555,3.64,5.226,5.518
			l-0.147,17.818h3.032l-0.092-17.06c1.868-2.139,3.856-4.246,5.901-6.276c2.062-2.046,4.204-4.027,6.497-5.843
			c1.139-0.921,2.338-1.755,3.585-2.544c1.267-0.783,2.554-1.538,3.857-2.273c2.611-1.461,5.283-2.845,8.071-4.026
			c-2.869,1.011-5.648,2.235-8.375,3.543c-1.362,0.659-2.711,1.34-4.043,2.05c-1.334,0.729-2.641,1.52-3.867,2.386
			c-0.463,0.32-0.915,0.651-1.368,0.983l7.25-13.506l-9.948,15.579c-1.008,0.811-1.998,1.638-2.97,2.482
			c-1.607,1.398-3.169,2.823-4.7,4.293l-0.505-14.653l10.409-15.849L441.7,425.453l-0.452-13.114l-0.748,14.674l-0.002,0.003
			l0.002,0.001l-0.749,14.708c-1.329-1.258-2.681-2.488-4.069-3.695c-1.091-0.948-2.202-1.879-3.34-2.784l-9.412-16.074
			l6.913,14.179c-0.397-0.289-0.792-0.58-1.197-0.86c-1.226-0.866-2.533-1.658-3.866-2.386c-1.332-0.71-2.682-1.392-4.043-2.05
			c-2.727-1.308-5.505-2.533-8.375-3.543c2.788,1.181,5.46,2.565,8.071,4.026c1.303,0.735,2.591,1.49,3.858,2.273
			C425.537,431.6,426.736,432.435,427.875,433.356z"/>
	</g>
	<g>
		<path style="fill:#92E3A9;" d="M47.625,366.465c-24.444,0-44.26,19.681-44.26,43.959c0,11.256,4.262,21.522,11.267,29.299
			c3.205-0.464,9.047-0.784,15.503,1.412c8.556,2.91,13.888,7.68,15.055,8.793h3.966c1.168-1.114,6.499-5.883,15.055-8.793
			c7.03-2.391,13.333-1.801,16.294-1.287c7.072-7.791,11.379-18.108,11.379-29.424C91.885,386.146,72.069,366.465,47.625,366.465z"
			/>
		<path style="opacity:0.5;fill:#FFFFFF;" d="M47.625,366.465c-24.444,0-44.26,19.681-44.26,43.959
			c0,11.256,4.262,21.522,11.267,29.299c3.205-0.464,9.047-0.784,15.503,1.412c8.556,2.91,13.888,7.68,15.055,8.793h3.966
			c1.168-1.114,6.499-5.883,15.055-8.793c7.03-2.391,13.333-1.801,16.294-1.287c7.072-7.791,11.379-18.108,11.379-29.424
			C91.885,386.146,72.069,366.465,47.625,366.465z"/>
		<path style="fill:#263238;" d="M34.175,433.356c2.293,1.815,4.435,3.797,6.497,5.843c1.802,1.789,3.555,3.64,5.226,5.518
			l-0.147,17.818h3.032l-0.092-17.06c1.868-2.139,3.856-4.246,5.901-6.276c2.062-2.046,4.204-4.027,6.497-5.843
			c1.139-0.921,2.338-1.755,3.585-2.544c1.267-0.783,2.554-1.538,3.858-2.273c2.611-1.461,5.283-2.845,8.071-4.026
			c-2.869,1.011-5.648,2.235-8.375,3.543c-1.361,0.659-2.711,1.34-4.043,2.05c-1.334,0.729-2.641,1.52-3.866,2.386
			c-0.463,0.32-0.915,0.651-1.368,0.983l7.25-13.506l-9.948,15.579c-1.008,0.811-1.998,1.638-2.97,2.482
			c-1.607,1.398-3.169,2.823-4.7,4.293l-0.505-14.653l10.409-15.849l-10.485,13.631l-0.452-13.114l-0.748,14.674l-0.002,0.003
			l0.002,0.001l-0.749,14.708c-1.329-1.258-2.681-2.488-4.069-3.695c-1.091-0.948-2.202-1.879-3.34-2.784l-9.412-16.074
			l6.913,14.179c-0.397-0.289-0.792-0.58-1.197-0.86c-1.226-0.866-2.533-1.658-3.866-2.386c-1.332-0.71-2.681-1.392-4.043-2.05
			c-2.727-1.308-5.505-2.533-8.375-3.543c2.788,1.181,5.46,2.565,8.071,4.026c1.303,0.735,2.591,1.49,3.858,2.273
			C31.837,431.6,33.036,432.435,34.175,433.356z"/>
	</g>
</g>
<g id="Floor">
	<line style="fill:none;stroke:#263238;stroke-miterlimit:10;" x1="7.002" y1="462.534" x2="493.109" y2="462.534"/>
</g>
</svg>
